<svg xmlns="http://www.w3.org/2000/svg" xmlns:xlink="http://www.w3.org/1999/xlink" width="0" height="0" style="display:none;"><symbol viewBox="0 0 1024 1024" id="sea-font-arrow-up"><path d="M897.96 728.3c-18.8 18.8-49.1 18.801-67.901 0l-318-318-318 318c-18.8 18.8-49.2 18.8-67.901 0-18.8-18.8-18.801-49.1 0-67.901l352-352c18.8-18.8 49.2-18.8 67.901 0l352 352c9.4 9.4 14 21.7 14 34-0.1 12.2-4.7 24.501-14.1 33.9z" p-id="9897"></path></symbol><symbol viewBox="0 0 1024 1024" id="sea-font-bars"><path d="M950.857143 768v73.142857c0 20.004571-16.566857 36.571429-36.571429 36.571429H109.714286c-20.004571 0-36.571429-16.566857-36.571429-36.571429v-73.142857c0-20.004571 16.566857-36.571429 36.571429-36.571429h804.571428c20.004571 0 36.571429 16.566857 36.571429 36.571429z m0-292.571429v73.142858c0 20.004571-16.566857 36.571429-36.571429 36.571428H109.714286c-20.004571 0-36.571429-16.566857-36.571429-36.571428v-73.142858c0-20.004571 16.566857-36.571429 36.571429-36.571428h804.571428c20.004571 0 36.571429 16.566857 36.571429 36.571428z m0-292.571428v73.142857c0 20.004571-16.566857 36.571429-36.571429 36.571429H109.714286c-20.004571 0-36.571429-16.566857-36.571429-36.571429V182.857143c0-20.004571 16.566857-36.571429 36.571429-36.571429h804.571428c20.004571 0 36.571429 16.566857 36.571429 36.571429z" fill="" p-id="10879"></path></symbol><symbol viewBox="0 0 1024 1024" id="sea-font-date"><path d="M805.49888 981.49888l-602.3168-0.76288c-86.59456-8.192-154.56768-81.3056-154.56768-170.01472L48.6144 291.73248c0-94.1568 76.60032-170.75712 170.7776-170.75712l586.10176 0c94.1568 0 170.73152 76.60032 170.73152 170.75712L976.22528 810.7008C976.2304 904.87296 899.63008 981.49888 805.49888 981.49888L805.49888 981.49888zM219.3664 190.57152c-55.79776 0-101.20192 45.38368-101.20192 101.18144l0 518.96832c0 55.79776 45.40416 101.20704 101.20192 101.20704l586.13248 0c55.77728 0 101.16096-45.40928 101.16096-101.20704L906.65984 291.73248c0-55.79776-45.38368-101.18656-101.16096-101.18656L219.3664 190.54592 219.3664 190.57152zM698.84416 290.51904c-25.60512 0-46.38208-20.77696-46.38208-46.38208l0-158.6688c0-25.6 20.77696-46.38208 46.38208-46.38208 25.6 0 46.38208 20.78208 46.38208 46.38208L745.22624 244.1216C745.22624 269.7472 724.46976 290.51904 698.84416 290.51904L698.84416 290.51904zM315.65824 290.51904c-25.60512 0-46.38208-20.77696-46.38208-46.38208l0-158.6688c0-25.6 20.77696-46.38208 46.38208-46.38208 25.6 0 46.38208 20.78208 46.38208 46.38208L362.04032 244.1216C362.04032 269.7472 341.28896 290.51904 315.65824 290.51904L315.65824 290.51904zM534.8864 794.78784l-44.27264 0c-25.6 0-46.38208-20.77696-46.38208-46.38208 0-25.6 20.78208-46.38208 46.38208-46.38208l44.27264 0c25.6 0 46.38208 20.78208 46.38208 46.38208C581.26848 774.01088 560.4864 794.78784 534.8864 794.78784L534.8864 794.78784zM930.79552 452.608 121.24672 452.608c-25.60512 0-46.38208-20.78208-46.38208-46.38208 0-25.60512 20.77696-46.38208 46.38208-46.38208l809.5744 0c25.6 0 46.38208 20.77696 46.38208 46.38208C977.2032 431.82592 956.42624 452.608 930.79552 452.608L930.79552 452.608zM327.92576 649.03168l-44.27264 0c-25.6 0-46.38208-20.78208-46.38208-46.38208 0-25.60512 20.78208-46.38208 46.38208-46.38208l44.27264 0c25.6 0 46.38208 20.77696 46.38208 46.38208C374.30784 628.25472 353.52576 649.03168 327.92576 649.03168L327.92576 649.03168zM534.8864 649.03168l-44.27264 0c-25.6 0-46.38208-20.78208-46.38208-46.38208 0-25.60512 20.78208-46.38208 46.38208-46.38208l44.27264 0c25.6 0 46.38208 20.77696 46.38208 46.38208S560.4864 649.03168 534.8864 649.03168L534.8864 649.03168zM741.27872 649.03168l-44.26752 0c-25.60512 0-46.38208-20.78208-46.38208-46.38208 0-25.60512 20.77696-46.38208 46.38208-46.38208l44.26752 0c25.60512 0 46.38208 20.77696 46.38208 46.38208C787.6608 628.25472 766.90944 649.03168 741.27872 649.03168L741.27872 649.03168zM327.92576 794.78784l-44.27264 0c-25.6 0-46.38208-20.77696-46.38208-46.38208 0-25.6 20.78208-46.38208 46.38208-46.38208l44.27264 0c25.6 0 46.38208 20.78208 46.38208 46.38208C374.30784 774.01088 353.52576 794.78784 327.92576 794.78784L327.92576 794.78784zM741.27872 794.78784l-44.26752 0c-25.60512 0-46.38208-20.77696-46.38208-46.38208 0-25.6 20.77696-46.38208 46.38208-46.38208l44.26752 0c25.60512 0 46.38208 20.78208 46.38208 46.38208C787.6608 774.01088 766.90944 794.78784 741.27872 794.78784L741.27872 794.78784z" fill="#272636" p-id="2622"></path></symbol><symbol viewBox="0 0 1024 1024" id="sea-font-email"><path d="M874.666667 181.333333H149.333333c-40.533333 0-74.666667 34.133333-74.666666 74.666667v512c0 40.533333 34.133333 74.666667 74.666666 74.666667h725.333334c40.533333 0 74.666667-34.133333 74.666666-74.666667V256c0-40.533333-34.133333-74.666667-74.666666-74.666667z m-725.333334 64h725.333334c6.4 0 10.666667 4.266667 10.666666 10.666667v25.6L512 516.266667l-373.333333-234.666667V256c0-6.4 4.266667-10.666667 10.666666-10.666667z m725.333334 533.333334H149.333333c-6.4 0-10.666667-4.266667-10.666666-10.666667V356.266667l356.266666 224c4.266667 4.266667 10.666667 4.266667 17.066667 4.266666s12.8-2.133333 17.066667-4.266666l356.266666-224V768c0 6.4-4.266667 10.666667-10.666666 10.666667z" fill="#666666" p-id="7084"></path></symbol><symbol viewBox="0 0 1024 1024" id="sea-font-folder"><path d="M810.666667 85.333333a85.333333 85.333333 0 0 1 85.333333 85.333334v152.021333c36.821333 9.493333 64 42.88 64 82.645333v405.333334a128 128 0 0 1-128 128H192a128 128 0 0 1-128-128V298.666667a85.376 85.376 0 0 1 64-82.645334V170.666667a85.333333 85.333333 0 0 1 85.333333-85.333334h597.333334zM128.149333 296.170667L128 298.666667v512a64 64 0 0 0 60.245333 63.893333L192 874.666667h640a64 64 0 0 0 63.893333-60.245334L896 810.666667V405.333333a21.333333 21.333333 0 0 0-18.837333-21.184L874.666667 384H638.165333l-122.069333-101.717333a21.333333 21.333333 0 0 0-10.688-4.736l-2.986667-0.213334H149.333333a21.333333 21.333333 0 0 0-21.184 18.837334zM535.189333 213.333333l127.978667 106.666667H832V170.666667a21.333333 21.333333 0 0 0-18.837333-21.184L810.666667 149.333333H213.333333a21.333333 21.333333 0 0 0-21.184 18.837334L192 170.666667v42.666666h343.168z" fill="#333333" p-id="4551"></path></symbol><symbol viewBox="0 0 1024 1024" id="sea-font-github"><path d="M512 42.666667A464.64 464.64 0 0 0 42.666667 502.186667 460.373333 460.373333 0 0 0 363.52 938.666667c23.466667 4.266667 32-9.813333 32-22.186667v-78.08c-130.56 27.733333-158.293333-61.44-158.293333-61.44a122.026667 122.026667 0 0 0-52.053334-67.413333c-42.666667-28.16 3.413333-27.733333 3.413334-27.733334a98.56 98.56 0 0 1 71.68 47.36 101.12 101.12 0 0 0 136.533333 37.973334 99.413333 99.413333 0 0 1 29.866667-61.44c-104.106667-11.52-213.333333-50.773333-213.333334-226.986667a177.066667 177.066667 0 0 1 47.36-124.16 161.28 161.28 0 0 1 4.693334-121.173333s39.68-12.373333 128 46.933333a455.68 455.68 0 0 1 234.666666 0c89.6-59.306667 128-46.933333 128-46.933333a161.28 161.28 0 0 1 4.693334 121.173333A177.066667 177.066667 0 0 1 810.666667 477.866667c0 176.64-110.08 215.466667-213.333334 226.986666a106.666667 106.666667 0 0 1 32 85.333334v125.866666c0 14.933333 8.533333 26.88 32 22.186667A460.8 460.8 0 0 0 981.333333 502.186667 464.64 464.64 0 0 0 512 42.666667" fill="#231F20" p-id="8786"></path></symbol><symbol viewBox="0 0 1024 1024" id="sea-font-juejin"><path d="M465.189 161.792c-22.967 18.14-44.325 35.109-47.397 37.742l-5.851 4.68 10.971 8.632c5.998 4.827 11.85 9.508 13.02 10.532 1.17 1.024 17.993 14.336 37.156 29.696l34.962 27.795 5.267-3.95c2.925-2.194 23.259-18.432 45.348-35.986 21.943-17.555 41.253-32.768 42.716-33.646 1.609-1.024 2.779-2.194 2.779-2.78 0-0.438-9.655-8.63-21.504-17.846-11.995-9.363-22.674-17.847-23.845-18.871-15.945-13.02-49.737-39.059-50.76-39.059-0.586 0.147-19.896 14.922-42.862 33.061z m233.325 180.37C507.465 493.275 508.928 492.105 505.417 489.911c-3.072-1.902-11.556-8.485-64.073-50.03-9.07-7.168-18.578-14.775-21.358-16.823-2.78-2.194-8.777-6.875-13.312-10.532-4.68-3.657-10.679-8.339-13.312-10.533-13.165-10.24-71.095-56.027-102.107-80.457-5.852-4.681-11.41-8.485-12.142-8.485-0.731 0-10.971 7.754-22.674 17.116-11.703 9.508-22.674 18.286-24.284 19.456-1.755 1.17-5.12 3.95-7.46 6.144-2.34 2.34-4.828 4.096-5.413 4.096-3.072 0-0.731 3.072 6.437 8.777 4.096 3.218 8.777 6.875 10.094 8.046 1.316 1.024 10.24 8.045 19.748 15.506s23.26 18.286 30.428 23.99c19.31 15.215 31.89 25.308 127.853 101.084 47.836 37.742 88.796 69.779 90.844 71.095 3.657 2.487 3.95 2.487 7.46-0.292a1041.42 1041.42 0 0 0 16.092-12.727c6.875-5.413 14.775-11.703 17.554-13.897 30.135-23.699 80.018-63.05 81.774-64.512 1.17-1.024 12.434-9.802 24.868-19.603s37.888-29.696 56.32-44.324c18.579-14.629 46.227-36.425 61.733-48.567 15.506-12.142 27.794-22.528 27.502-23.26-0.878-1.17-57.637-47.104-59.978-48.274-0.731-0.439-18.578 12.727-39.497 29.257z" fill="#006CFF" p-id="13956"></path><path d="M57.93 489.326c-15.215 12.288-28.527 23.405-29.697 24.576-2.34 2.194-5.412-0.44 80.018 66.852 33.207 26.185 32.622 25.747 57.637 45.495 10.386 8.192 36.279 28.672 57.783 45.495 38.18 30.135 44.91 35.401 52.663 41.545 2.048 1.756 22.967 18.14 46.372 36.572 23.26 18.432 74.167 58.514 112.933 89.088 38.912 30.573 71.095 55.734 71.826 56.027 0.732 0.293 7.46-4.389 14.921-10.386 21.797-16.97 90.259-70.949 101.523-79.872 5.705-4.535 12.873-10.24 15.945-12.58 3.072-2.488 6.436-5.12 7.314-5.852 0.878-0.878 11.85-9.509 24.283-19.31 20.773-16.091 59.1-46.226 64.366-50.615 1.17-1.024 5.12-4.096 8.777-6.875 3.657-2.78 7.9-6.29 9.509-7.607 1.609-1.317 14.775-11.703 29.257-23.113 29.11-22.82 42.277-33.207 88.503-69.632 17.262-13.605 32.475-25.454 33.646-26.478 2.486-2.048 31.451-24.869 44.617-35.255 4.827-3.657 9.07-7.168 9.508-7.607 0.44-0.585 5.998-4.827 12.435-9.8 6.436-4.828 13.165-10.24 15.067-11.85l3.365-2.926-9.948-7.753c-5.412-4.388-10.24-8.192-10.679-8.63-1.17-1.317-22.381-18.433-30.135-24.284-3.95-3.072-7.314-5.998-7.606-6.73-1.317-3.071-6.73 0.147-29.258 17.994-13.458 10.532-25.746 20.187-27.355 21.504-1.61 1.463-10.533 8.338-19.749 15.652-9.216 7.168-17.115 13.459-17.554 13.898-0.439 0.438-6.583 5.412-13.897 10.971-7.168 5.559-15.214 11.703-17.7 13.75-4.974 4.097-5.413 4.39-20.334 16.239-5.56 4.388-11.264 8.777-12.435 9.8-1.17 1.025-20.333 16.092-42.422 33.354-22.09 17.408-41.546 32.768-43.155 34.084-1.609 1.463-14.482 11.557-28.525 22.528s-40.814 32.037-59.539 46.812c-18.578 14.775-42.276 33.353-52.516 41.399s-23.26 18.285-28.965 22.82l-10.386 8.339-4.389-3.072c-2.34-1.756-4.68-3.511-5.12-3.95-0.439-0.439-4.973-4.096-10.24-8.046-11.849-9.216-14.482-11.264-16.676-13.166-0.878-0.877-4.243-3.51-7.46-5.851-3.22-2.487-6.145-4.681-6.584-5.12-0.439-0.439-6.875-5.705-14.482-11.703-7.607-5.851-14.921-11.556-16.091-12.58-1.317-1.17-17.116-13.605-35.255-27.795-17.993-14.19-35.109-27.648-38.035-29.842-5.705-4.681-33.499-26.624-125.074-98.743-34.523-27.209-72.704-57.344-84.846-66.852-49.737-39.498-55.15-43.594-56.905-43.447-0.877 0-14.043 10.24-29.257 22.528z" fill="#006CFF" p-id="13957"></path></symbol><symbol viewBox="0 0 1024 1024" id="sea-font-rss"><path d="M810.666667 853.376C810.666667 500.437333 523.562667 213.333333 170.666667 213.333333v85.333334c305.834667 0 554.666667 248.832 554.666666 554.709333h85.333334z" fill="" p-id="4257"></path><path d="M512 853.376h85.333333C597.333333 618.069333 405.930667 426.666667 170.666667 426.666667v85.333333c188.202667 0 341.333333 153.130667 341.333333 341.376z" fill="" p-id="4258"></path><path d="M256 768m-85.333333 0a85.333333 85.333333 0 1 0 170.666666 0 85.333333 85.333333 0 1 0-170.666666 0Z" fill="" p-id="4259"></path></symbol><symbol viewBox="0 0 1024 1024" id="sea-font-search"><path d="M948.032 902.784l-206.976-206.976C797.696 628.928 832 542.528 832 448c0-212.064-171.936-384-384-384S64 235.936 64 448s171.936 384 384 384c94.528 0 180.928-34.304 247.808-90.912l206.976 206.976c14.016 14.016 35.488 15.232 48 2.72C963.264 938.272 962.048 916.8 948.032 902.784zM448 768C271.264 768 128 624.736 128 448S271.264 128 448 128s320 143.264 320 320S624.736 768 448 768z" fill="#272636" p-id="5129"></path></symbol><symbol viewBox="0 0 1024 1024" id="sea-font-tag"><path d="M384 977.152c-20.5312 0-39.8336-7.9872-54.3232-22.4256l-260.4032-260.4032c-14.4896-14.4896-22.4256-33.7408-22.4256-54.3232s7.9872-39.8336 22.4256-54.3232l439.6032-439.6032c24.9344-24.9344 70.2464-43.7248 105.5232-43.7248h230.4c42.3424 0 76.8 34.4576 76.8 76.8v230.4c0 35.2256-18.7904 80.5888-43.6736 105.5232l-439.6032 439.6032a76.1856 76.1856 0 0 1-54.3232 22.4256zM614.4 153.6c-21.248 0-54.272 13.6704-69.2736 28.7232l-439.6032 439.6032c-4.8128 4.8128-7.424 11.2128-7.424 18.1248s2.6624 13.312 7.424 18.0736l260.4032 260.4032c4.8128 4.8128 11.2128 7.424 18.1248 7.424s13.312-2.6624 18.1248-7.424l439.6032-439.6032c15.0016-15.0016 28.7232-48.0768 28.7232-69.3248V179.2a25.6 25.6 0 0 0-25.6-25.6h-230.4z" fill="" p-id="6118"></path><path d="M742.4 358.4c-42.3424 0-76.8-34.4576-76.8-76.8S700.0576 204.8 742.4 204.8s76.8 34.4576 76.8 76.8S784.7424 358.4 742.4 358.4z m0-102.4a25.6 25.6 0 1 0 0 51.2 25.6 25.6 0 0 0 0-51.2z" fill="" p-id="6119"></path></symbol><symbol viewBox="0 0 1024 1024" id="sea-font-theme"><path d="M517.78756813 963.02833313c-248.20624839 0-450.14412281-201.93786116-450.14412292-450.14412274s201.93786116-450.14412281 450.14412292-450.14412293 450.14412281 201.93786116 450.14412269 450.14412293c0 110.01201254-54.54782202 174.46299818-176.8584166 208.99548464-18.13438105 5.1444977-34.40386711 7.25053268-56.09117547 7.25053245-7.3469941 0-15.54605323-0.24115299-25.04729943-0.67521515a469.43601209 469.43601209 0 0 0-20.4493977-0.51445125c-36.55813255 0-45.46455228 5.56250078-59.16180948 26.09228721-12.13781811 18.19868433-15.41743385 34.01803535 3.68154668 61.05883651 1.55942577 2.21856863 3.15100963 4.38890686 5.11233931 6.97723435l5.56250076 7.29876343c17.10547892 22.47505743 31.49401053 45.49671041 19.9349601 79.64335214l-1.89704011 5.59464564-3.42430764 4.8229824C629.53584301 961.27598479 594.40853004 963.02833313 517.78756813 963.02833313z m0-819.90536181c-203.88313189 0-369.76123919 165.87810694-369.76123914 369.76123907s165.87810694 369.76123919 369.76123914 369.76123899c37.2976513 0 55.09443111-0.90028283 64.30630705-2.79732269-0.41798999-0.57875404-0.90028283-1.18966641-1.38258884-1.81665161l-5.53034276-7.25053241a322.01381491 322.01381491 0 0 1-6.88077321-9.3726402c-36.23660395-51.26820641-37.89249105-102.4238655-4.87119975-151.95579598 34.24310269-51.34858158 75.15799728-61.89481598 126.04034521-61.894816 7.45952764 0 15.43350624 0.22506734 24.05055567 0.61089915 26.68711402 1.17359408 39.86990654 0.83597968 55.65711286-3.64937491 88.51762698-24.98299647 118.35575041-58.18112471 118.35575039-131.63500434 0.01607252-203.88313189-165.84594893-369.76123919-369.74516662-369.76123907z" fill="#707070" p-id="7094"></path><path d="M300.75380167 440.53962147m-56.26802518 0a56.26801236 56.26801236 0 1 0 112.53603734 0 56.26801236 56.26801236 0 1 0-112.53603734 0Z" fill="#707070" p-id="7095"></path><path d="M734.82133467 440.53962147m-56.26801214 0a56.26801236 56.26801236 0 1 0 112.53603733 0 56.26801236 56.26801236 0 1 0-112.53603733 0Z" fill="#707070" p-id="7096"></path><path d="M429.3664027 295.85044411m-56.26801231 0a56.26801236 56.26801236 0 1 0 112.53602443 0 56.26801236 56.26801236 0 1 0-112.53602443 0Z" fill="#707070" p-id="7097"></path><path d="M606.2087337 295.85044411m-56.26801201 0a56.26801236 56.26801236 0 1 0 112.5360242 0 56.26801236 56.26801236 0 1 0-112.5360242 0Z" fill="#707070" p-id="7098"></path></symbol><symbol viewBox="0 0 1024 1024" id="sea-font-top-post">
  <path d="M989.92226267 444.34101033L580.14900967 34.90909133H119.41107067l870.511192 870.596525V444.34101033z" fill="#d81e06" p-id="18862"></path>
  <path d="M621.3675956666667 219.39846433333332l-43.832889-43.770828-126.663111 126.841535-32.826182-32.780929 126.663112-126.841535-43.734627-43.673859 26.739071-26.775273 120.396283 120.224324-26.741657 26.776565zM582.6055756666667 284.67587833333334c24.030384-24.065293 50.614303-36.636444 79.751758-37.71604 29.134869-1.07701 55.240404 9.903838 78.31402 32.945131 21.950061 21.91903 32.323232 46.86998 31.120808 74.851556s-13.257697 53.441939-36.167111 76.383677c-23.901091 23.934707-50.254869 36.406303-79.057455 37.41608-28.806465 1.012364-54.481455-9.739636-77.024969-32.252121-22.016-21.98497-32.689131-47.067798-32.014223-75.244606 0.672323-28.179394 12.365576-53.638465 35.077172-76.383677z m36.196849 32.57794c-14.921697 14.943677-23.517091 30.756202-25.783596 47.438869-2.269091 16.68396 2.880646 31.297939 15.441454 43.841939 12.825859 12.807758 27.34804 18.234182 43.566546 16.271515 16.217212-1.960081 31.985778-10.608485 47.303111-25.947798 15.976727-15.998707 25.133253-32.109899 27.46699-48.332283 2.333737-16.221091-2.813414-30.637253-15.441455-43.247192-12.827152-12.809051-27.67903-18.133333-44.558222-15.972848-16.879192 2.157899-32.877899 10.808889-47.994828 25.947798zM780.1276766666667 524.3048083333333l-53.476848 53.553131-32.726627-32.681374 153.400889-153.616808 52.858829 52.783839c38.213818 38.159515 41.146182 73.44097 8.79709 105.83402-15.71297 15.737535-34.076444 22.586182-55.086545 20.552404-21.012687-2.032485-39.97996-11.897535-56.905697-29.591273l-16.861091-16.833939z m74.572283-74.67701l-49.516606 49.586424 14.182141 14.161454c19.240081 19.211636 37.209212 20.455434 53.913859 3.728809 16.305131-16.329697 14.941091-34.002747-4.101172-53.016566L854.6999596666667 449.6277983333334z" fill="#FFFFFF" p-id="18863"></path>
</symbol></svg>