<svg xmlns="http://www.w3.org/2000/svg" xmlns:xlink="http://www.w3.org/1999/xlink" width="0" height="0" style="display:none;"><symbol viewBox="0 0 1024 1024" id="sea-font-email"><path d="M874.666667 181.333333H149.333333c-40.533333 0-74.666667 34.133333-74.666666 74.666667v512c0 40.533333 34.133333 74.666667 74.666666 74.666667h725.333334c40.533333 0 74.666667-34.133333 74.666666-74.666667V256c0-40.533333-34.133333-74.666667-74.666666-74.666667z m-725.333334 64h725.333334c6.4 0 10.666667 4.266667 10.666666 10.666667v25.6L512 516.266667l-373.333333-234.666667V256c0-6.4 4.266667-10.666667 10.666666-10.666667z m725.333334 533.333334H149.333333c-6.4 0-10.666667-4.266667-10.666666-10.666667V356.266667l356.266666 224c4.266667 4.266667 10.666667 4.266667 17.066667 4.266666s12.8-2.133333 17.066667-4.266666l356.266666-224V768c0 6.4-4.266667 10.666667-10.666666 10.666667z" fill="#666666" p-id="7084"></path></symbol><symbol viewBox="0 0 1024 1024" id="sea-font-github"><path d="M512 42.666667A464.64 464.64 0 0 0 42.666667 502.186667 460.373333 460.373333 0 0 0 363.52 938.666667c23.466667 4.266667 32-9.813333 32-22.186667v-78.08c-130.56 27.733333-158.293333-61.44-158.293333-61.44a122.026667 122.026667 0 0 0-52.053334-67.413333c-42.666667-28.16 3.413333-27.733333 3.413334-27.733334a98.56 98.56 0 0 1 71.68 47.36 101.12 101.12 0 0 0 136.533333 37.973334 99.413333 99.413333 0 0 1 29.866667-61.44c-104.106667-11.52-213.333333-50.773333-213.333334-226.986667a177.066667 177.066667 0 0 1 47.36-124.16 161.28 161.28 0 0 1 4.693334-121.173333s39.68-12.373333 128 46.933333a455.68 455.68 0 0 1 234.666666 0c89.6-59.306667 128-46.933333 128-46.933333a161.28 161.28 0 0 1 4.693334 121.173333A177.066667 177.066667 0 0 1 810.666667 477.866667c0 176.64-110.08 215.466667-213.333334 226.986666a106.666667 106.666667 0 0 1 32 85.333334v125.866666c0 14.933333 8.533333 26.88 32 22.186667A460.8 460.8 0 0 0 981.333333 502.186667 464.64 464.64 0 0 0 512 42.666667" fill="#231F20" p-id="8786"></path></symbol><symbol viewBox="0 0 1024 1024" id="sea-font-juejin"><path d="M465.189 161.792c-22.967 18.14-44.325 35.109-47.397 37.742l-5.851 4.68 10.971 8.632c5.998 4.827 11.85 9.508 13.02 10.532 1.17 1.024 17.993 14.336 37.156 29.696l34.962 27.795 5.267-3.95c2.925-2.194 23.259-18.432 45.348-35.986 21.943-17.555 41.253-32.768 42.716-33.646 1.609-1.024 2.779-2.194 2.779-2.78 0-0.438-9.655-8.63-21.504-17.846-11.995-9.363-22.674-17.847-23.845-18.871-15.945-13.02-49.737-39.059-50.76-39.059-0.586 0.147-19.896 14.922-42.862 33.061z m233.325 180.37C507.465 493.275 508.928 492.105 505.417 489.911c-3.072-1.902-11.556-8.485-64.073-50.03-9.07-7.168-18.578-14.775-21.358-16.823-2.78-2.194-8.777-6.875-13.312-10.532-4.68-3.657-10.679-8.339-13.312-10.533-13.165-10.24-71.095-56.027-102.107-80.457-5.852-4.681-11.41-8.485-12.142-8.485-0.731 0-10.971 7.754-22.674 17.116-11.703 9.508-22.674 18.286-24.284 19.456-1.755 1.17-5.12 3.95-7.46 6.144-2.34 2.34-4.828 4.096-5.413 4.096-3.072 0-0.731 3.072 6.437 8.777 4.096 3.218 8.777 6.875 10.094 8.046 1.316 1.024 10.24 8.045 19.748 15.506s23.26 18.286 30.428 23.99c19.31 15.215 31.89 25.308 127.853 101.084 47.836 37.742 88.796 69.779 90.844 71.095 3.657 2.487 3.95 2.487 7.46-0.292a1041.42 1041.42 0 0 0 16.092-12.727c6.875-5.413 14.775-11.703 17.554-13.897 30.135-23.699 80.018-63.05 81.774-64.512 1.17-1.024 12.434-9.802 24.868-19.603s37.888-29.696 56.32-44.324c18.579-14.629 46.227-36.425 61.733-48.567 15.506-12.142 27.794-22.528 27.502-23.26-0.878-1.17-57.637-47.104-59.978-48.274-0.731-0.439-18.578 12.727-39.497 29.257z" fill="#006CFF" p-id="13956"></path><path d="M57.93 489.326c-15.215 12.288-28.527 23.405-29.697 24.576-2.34 2.194-5.412-0.44 80.018 66.852 33.207 26.185 32.622 25.747 57.637 45.495 10.386 8.192 36.279 28.672 57.783 45.495 38.18 30.135 44.91 35.401 52.663 41.545 2.048 1.756 22.967 18.14 46.372 36.572 23.26 18.432 74.167 58.514 112.933 89.088 38.912 30.573 71.095 55.734 71.826 56.027 0.732 0.293 7.46-4.389 14.921-10.386 21.797-16.97 90.259-70.949 101.523-79.872 5.705-4.535 12.873-10.24 15.945-12.58 3.072-2.488 6.436-5.12 7.314-5.852 0.878-0.878 11.85-9.509 24.283-19.31 20.773-16.091 59.1-46.226 64.366-50.615 1.17-1.024 5.12-4.096 8.777-6.875 3.657-2.78 7.9-6.29 9.509-7.607 1.609-1.317 14.775-11.703 29.257-23.113 29.11-22.82 42.277-33.207 88.503-69.632 17.262-13.605 32.475-25.454 33.646-26.478 2.486-2.048 31.451-24.869 44.617-35.255 4.827-3.657 9.07-7.168 9.508-7.607 0.44-0.585 5.998-4.827 12.435-9.8 6.436-4.828 13.165-10.24 15.067-11.85l3.365-2.926-9.948-7.753c-5.412-4.388-10.24-8.192-10.679-8.63-1.17-1.317-22.381-18.433-30.135-24.284-3.95-3.072-7.314-5.998-7.606-6.73-1.317-3.071-6.73 0.147-29.258 17.994-13.458 10.532-25.746 20.187-27.355 21.504-1.61 1.463-10.533 8.338-19.749 15.652-9.216 7.168-17.115 13.459-17.554 13.898-0.439 0.438-6.583 5.412-13.897 10.971-7.168 5.559-15.214 11.703-17.7 13.75-4.974 4.097-5.413 4.39-20.334 16.239-5.56 4.388-11.264 8.777-12.435 9.8-1.17 1.025-20.333 16.092-42.422 33.354-22.09 17.408-41.546 32.768-43.155 34.084-1.609 1.463-14.482 11.557-28.525 22.528s-40.814 32.037-59.539 46.812c-18.578 14.775-42.276 33.353-52.516 41.399s-23.26 18.285-28.965 22.82l-10.386 8.339-4.389-3.072c-2.34-1.756-4.68-3.511-5.12-3.95-0.439-0.439-4.973-4.096-10.24-8.046-11.849-9.216-14.482-11.264-16.676-13.166-0.878-0.877-4.243-3.51-7.46-5.851-3.22-2.487-6.145-4.681-6.584-5.12-0.439-0.439-6.875-5.705-14.482-11.703-7.607-5.851-14.921-11.556-16.091-12.58-1.317-1.17-17.116-13.605-35.255-27.795-17.993-14.19-35.109-27.648-38.035-29.842-5.705-4.681-33.499-26.624-125.074-98.743-34.523-27.209-72.704-57.344-84.846-66.852-49.737-39.498-55.15-43.594-56.905-43.447-0.877 0-14.043 10.24-29.257 22.528z" fill="#006CFF" p-id="13957"></path></symbol><symbol viewBox="0 0 1024 1024" id="sea-font-rss"><path d="M810.666667 853.376C810.666667 500.437333 523.562667 213.333333 170.666667 213.333333v85.333334c305.834667 0 554.666667 248.832 554.666666 554.709333h85.333334z" fill="" p-id="4257"></path><path d="M512 853.376h85.333333C597.333333 618.069333 405.930667 426.666667 170.666667 426.666667v85.333333c188.202667 0 341.333333 153.130667 341.333333 341.376z" fill="" p-id="4258"></path><path d="M256 768m-85.333333 0a85.333333 85.333333 0 1 0 170.666666 0 85.333333 85.333333 0 1 0-170.666666 0Z" fill="" p-id="4259"></path></symbol><symbol viewBox="0 0 1024 1024" id="sea-font-top-post">
  <path d="M989.92226267 444.34101033L580.14900967 34.90909133H119.41107067l870.511192 870.596525V444.34101033z" fill="#d81e06" p-id="18862"></path>
  <path d="M621.3675956666667 219.39846433333332l-43.832889-43.770828-126.663111 126.841535-32.826182-32.780929 126.663112-126.841535-43.734627-43.673859 26.739071-26.775273 120.396283 120.224324-26.741657 26.776565zM582.6055756666667 284.67587833333334c24.030384-24.065293 50.614303-36.636444 79.751758-37.71604 29.134869-1.07701 55.240404 9.903838 78.31402 32.945131 21.950061 21.91903 32.323232 46.86998 31.120808 74.851556s-13.257697 53.441939-36.167111 76.383677c-23.901091 23.934707-50.254869 36.406303-79.057455 37.41608-28.806465 1.012364-54.481455-9.739636-77.024969-32.252121-22.016-21.98497-32.689131-47.067798-32.014223-75.244606 0.672323-28.179394 12.365576-53.638465 35.077172-76.383677z m36.196849 32.57794c-14.921697 14.943677-23.517091 30.756202-25.783596 47.438869-2.269091 16.68396 2.880646 31.297939 15.441454 43.841939 12.825859 12.807758 27.34804 18.234182 43.566546 16.271515 16.217212-1.960081 31.985778-10.608485 47.303111-25.947798 15.976727-15.998707 25.133253-32.109899 27.46699-48.332283 2.333737-16.221091-2.813414-30.637253-15.441455-43.247192-12.827152-12.809051-27.67903-18.133333-44.558222-15.972848-16.879192 2.157899-32.877899 10.808889-47.994828 25.947798zM780.1276766666667 524.3048083333333l-53.476848 53.553131-32.726627-32.681374 153.400889-153.616808 52.858829 52.783839c38.213818 38.159515 41.146182 73.44097 8.79709 105.83402-15.71297 15.737535-34.076444 22.586182-55.086545 20.552404-21.012687-2.032485-39.97996-11.897535-56.905697-29.591273l-16.861091-16.833939z m74.572283-74.67701l-49.516606 49.586424 14.182141 14.161454c19.240081 19.211636 37.209212 20.455434 53.913859 3.728809 16.305131-16.329697 14.941091-34.002747-4.101172-53.016566L854.6999596666667 449.6277983333334z" fill="#FFFFFF" p-id="18863"></path>
</symbol></svg>